<svg version="1.1" id="Layer_1" xmlns="http://www.w3.org/2000/svg" xmlns:xlink="http://www.w3.org/1999/xlink" x="0px" y="0px"
	 width="100%" viewBox="0 0 1024 1024" enable-background="new 0 0 1024 1024" xml:space="preserve">
<path fill="#000000" opacity="1.000000" stroke="none" 
	d="
M76.120720,457.385681 
	C83.790245,393.725098 104.244278,334.877686 137.887665,280.920563 
	C158.095169,248.511841 181.628738,218.551758 209.591934,192.202118 
	C243.226486,160.508362 281.129944,135.336014 322.608856,115.138367 
	C359.585022,97.133247 398.961243,87.076950 438.925385,79.068123 
	C452.022705,76.443398 465.501953,75.322159 478.946899,74.518539 
	C492.719818,73.695328 506.460999,72.290512 520.276672,72.683563 
	C537.557251,73.175179 554.789368,74.508522 571.943298,76.616463 
	C611.721497,81.504555 650.308044,91.172920 687.277527,106.723022 
	C718.862183,120.008156 748.270325,137.183899 776.016418,157.329224 
	C814.286926,185.115860 846.045105,219.017792 873.212524,257.609985 
	C904.549011,302.124725 926.461853,350.829773 939.684326,403.470276 
	C945.827881,427.928467 949.738892,452.860870 952.175964,477.966980 
	C954.028076,497.047241 954.344666,516.284851 953.151367,535.353943 
	C949.333252,596.366516 934.781555,654.719116 907.400879,709.610168 
	C882.817627,758.893250 850.166565,802.254456 809.467224,839.216736 
	C761.586304,882.701294 706.625183,914.084045 644.315552,932.272156 
	C619.868958,939.408081 595.096436,944.964478 569.848633,948.081482 
	C556.681396,949.706970 543.408386,950.643372 530.152039,951.630981 
	C510.618439,953.086060 491.227203,952.073425 471.918243,950.132874 
	C442.487335,947.174927 413.511230,941.557007 385.074707,933.082947 
	C327.126099,915.814575 275.241608,887.585938 228.778458,848.940308 
	C188.714920,815.617432 156.809830,775.736023 130.540298,730.948730 
	C109.395889,694.899292 94.388367,656.506470 84.291557,616.060669 
	C79.458519,596.700439 76.998474,576.975098 74.577652,557.220154 
	C72.753746,542.336426 71.630623,527.392761 71.798012,512.439270 
	C72.002548,494.169006 73.898773,475.968750 76.120720,457.385681 
M898.669006,341.719086 
	C885.550476,312.080017 869.748474,284.007965 850.296326,258.012390 
	C828.820068,229.311935 804.134399,203.789963 776.122925,181.404617 
	C747.145630,158.247467 715.205566,140.125748 681.230225,125.618362 
	C648.213440,111.520271 613.674683,102.676208 578.214661,97.003540 
	C553.479492,93.046570 528.612732,91.589256 503.688904,91.821083 
	C481.251099,92.029778 458.877289,94.477638 436.798767,98.610321 
	C389.066254,107.544937 343.467560,122.421127 301.292084,147.143738 
	C271.533508,164.587738 243.891983,184.745026 219.302551,208.881149 
	C192.213226,235.471069 168.895462,265.056091 150.044983,298.148743 
	C129.501877,334.212921 112.987434,371.801392 103.768440,412.444763 
	C96.741150,443.425690 91.260086,474.657715 90.552338,506.430969 
	C90.004753,531.013611 93.143562,555.391296 97.051498,579.725891 
	C102.998352,616.756592 113.705132,652.223572 128.981339,686.370300 
	C147.666412,728.136780 173.856781,765.029419 204.302643,798.822632 
	C237.396545,835.554993 276.527649,864.837219 320.518555,887.360901 
	C349.188751,902.040283 379.326233,913.092712 410.650055,920.786194 
	C430.660889,925.701111 450.897339,929.452148 471.396606,931.436707 
	C483.622955,932.620361 495.936523,934.654236 508.200287,933.410034 
	C520.162109,932.196655 532.132812,932.888489 544.101135,931.863586 
	C559.831238,930.516663 575.473145,928.735046 591.042480,926.250366 
	C616.430847,922.198486 640.923828,914.729614 664.968506,905.874329 
	C714.186523,887.748291 757.741699,860.263428 796.710083,825.289368 
	C820.780762,803.685913 841.128479,778.892944 859.652588,752.520752 
	C884.057129,717.776794 902.155212,680.002930 914.973816,639.505127 
	C925.723755,605.542725 931.401001,570.687561 934.338684,535.408081 
	C935.741516,518.561401 935.408813,501.500305 933.836426,484.512024 
	C931.829590,462.831451 928.252563,441.426270 923.853149,420.152069 
	C918.316833,393.379364 910.413147,367.322296 898.669006,341.719086 
z"/>
<path fill="#000000" opacity="1.000000" stroke="none" 
	d="
M220.054657,241.283569 
	C219.825729,238.631775 218.655991,235.892609 220.982864,234.408981 
	C223.201141,232.994598 225.453979,234.831970 227.430267,235.870987 
	C235.262711,239.988953 242.244598,245.423813 249.524246,250.399323 
	C251.961380,252.065063 254.226440,254.129547 257.310303,254.555954 
	C259.260284,253.237122 258.360291,251.619492 258.054535,250.026260 
	C256.898193,244.000504 255.405716,238.003754 254.780838,231.919968 
	C253.877441,223.124466 257.769379,220.526932 265.864899,223.994659 
	C273.045624,227.070557 278.406555,232.676270 284.424530,237.366989 
	C289.804657,241.560501 295.134003,245.819962 300.548615,249.968262 
	C306.035034,254.171600 312.243011,256.775513 318.877045,258.760651 
	C338.932556,264.761993 354.210632,277.139923 366.591370,293.920441 
	C379.829773,311.863403 386.594604,332.479065 393.256531,353.251190 
	C393.611847,354.359100 393.913605,355.484039 394.246063,356.599365 
	C398.252411,370.040222 406.841187,376.115845 420.923431,376.775574 
	C435.669983,377.466492 449.573578,373.379974 463.585175,370.120972 
	C486.401642,364.813873 509.401093,360.929535 532.699463,358.553009 
	C549.252319,356.864532 565.826538,355.419403 582.449646,355.762177 
	C611.489258,356.361084 639.858765,361.552856 667.853760,369.138367 
	C674.486694,370.935608 681.057556,373.462128 688.329773,372.044861 
	C701.294617,369.518127 709.800415,361.689056 714.799866,350.006866 
	C726.082642,323.642029 720.630615,299.875702 702.444336,278.624176 
	C689.127441,263.062622 672.406921,254.692200 651.433838,256.334198 
	C650.319275,256.421448 649.184082,256.245911 648.201843,256.199493 
	C647.435486,254.608368 649.697021,254.872711 649.156128,253.265717 
	C632.400146,254.277298 623.068970,266.612427 612.725281,278.650146 
	C611.424683,273.713348 614.759155,270.647858 613.847351,266.001923 
	C604.590271,275.396759 604.304138,286.922058 602.951782,298.130402 
	C597.636719,297.436310 597.771423,291.678406 593.950256,289.457764 
	C591.383179,293.460480 590.385620,297.340790 592.769104,301.582550 
	C593.501831,302.886627 594.546814,304.027313 595.189209,305.367218 
	C596.108521,307.284698 599.582397,308.685638 597.453369,311.207062 
	C595.542969,313.469574 592.504944,312.528656 589.958130,311.708893 
	C585.590942,310.303101 582.301575,307.064301 578.471497,304.739716 
	C577.103271,303.909363 576.056641,302.327515 573.195374,303.004395 
	C574.739868,310.439270 581.669983,313.632080 585.895691,319.127289 
	C582.329712,321.424408 579.067200,320.158417 575.800598,319.298248 
	C573.727783,318.752411 571.614746,316.932373 569.968567,320.387695 
	C569.132446,322.142578 566.987488,321.067932 565.418701,320.606659 
	C552.825989,316.904236 543.363342,308.859406 536.439514,298.138092 
	C529.422302,287.272156 524.786316,275.154297 523.962646,262.167603 
	C523.151733,249.383087 526.388245,237.150284 531.507568,225.396820 
	C537.004639,212.776077 545.120117,202.193176 555.489563,193.227524 
	C556.959106,191.956985 558.736816,190.826416 559.294006,188.878113 
	C559.362610,186.941116 556.958557,187.716019 556.534302,185.583298 
	C565.147949,178.710403 574.227905,172.120010 584.343750,166.958160 
	C594.911621,161.565628 606.234314,158.105972 617.291992,154.006989 
	C623.997925,151.521164 631.342224,151.552826 638.446228,151.068848 
	C653.800720,150.022751 669.209473,148.204498 683.721619,156.107193 
	C688.781372,158.862518 694.646423,159.881699 700.587646,160.171829 
	C708.646179,160.565369 715.690063,163.984390 722.089111,168.730316 
	C728.652222,173.597870 735.870239,177.358597 742.825745,181.561020 
	C752.169861,187.206604 760.132446,194.983200 767.757141,202.900848 
	C777.837769,213.368759 786.691345,224.795258 794.493896,237.066132 
	C801.451477,248.008148 804.126099,260.355499 806.231506,272.805298 
	C807.915894,282.765228 809.367859,292.844482 807.444214,303.011047 
	C807.277100,303.894409 807.120300,305.054382 808.806213,305.954041 
	C812.638367,300.528381 810.100525,293.370605 813.865417,286.915924 
	C816.887451,292.500885 817.438660,297.611725 817.034729,303.145905 
	C815.704224,321.373535 812.046509,338.956848 803.398682,355.365234 
	C807.058594,353.109131 808.770264,349.425415 810.963684,346.161407 
	C813.253479,342.754028 815.362671,339.225311 817.740417,335.448578 
	C820.360779,338.032349 819.369751,340.613831 818.676208,343.026489 
	C815.542053,353.928284 809.585449,363.315186 802.751953,372.205719 
	C800.348511,375.332642 797.849121,378.385803 795.963989,382.077484 
	C804.393555,378.270905 809.262268,370.188477 816.515198,364.288147 
	C817.772034,368.152069 815.754517,370.627319 814.491211,373.132660 
	C809.733765,382.567719 803.340210,390.874054 796.261475,398.664276 
	C789.897461,405.668091 784.109497,413.188965 776.329468,420.455322 
	C784.393921,420.956940 790.604248,416.474884 798.298950,416.277649 
	C794.635254,421.434204 790.043701,424.403748 785.385620,427.148163 
	C781.528259,429.420837 777.434082,431.348480 773.295288,433.069397 
	C769.755432,434.541229 769.314819,436.176544 772.014404,438.882080 
	C774.789001,441.662781 777.804932,444.311371 779.075317,448.631042 
	C775.502869,449.180908 772.790955,447.133362 769.769836,446.715851 
	C768.428833,446.530518 767.066467,446.070465 766.069580,447.299652 
	C764.990845,448.629578 766.011597,449.859833 766.617981,450.975983 
	C774.144348,464.831268 779.484192,479.441498 781.758972,495.084930 
	C782.618835,500.998077 783.687134,506.934021 783.254333,512.933350 
	C783.032227,516.012634 783.602783,519.537781 779.531250,521.235046 
	C777.979004,521.882080 778.373779,524.202148 778.364807,525.852966 
	C778.335938,531.186035 778.382263,536.519592 778.330994,541.852295 
	C778.314209,543.603149 778.733459,545.531616 777.212036,546.809326 
	C774.451965,547.013550 774.341736,544.006897 771.539673,543.079834 
	C770.355713,558.136658 773.056274,573.541626 766.397522,588.397583 
	C762.229980,583.917419 762.580566,577.869690 758.708618,573.714478 
	C756.069275,576.442444 757.126648,579.391418 757.747070,581.801147 
	C759.578552,588.915039 760.911987,596.211792 760.989197,603.408386 
	C761.064941,610.471436 759.727539,617.396912 767.093689,622.517883 
	C761.281128,624.585083 757.613647,619.735657 752.757019,621.739319 
	C754.410645,628.822205 759.858521,633.011780 764.696716,637.559387 
	C769.719238,642.280090 775.959167,644.959900 782.910889,646.939087 
	C780.302856,650.934509 776.347595,651.052673 773.106384,652.146240 
	C769.024902,653.523254 768.839050,655.160095 771.525574,658.092529 
	C775.374634,662.293640 776.731934,666.925659 776.580627,672.982361 
	C775.805664,704.001343 769.371338,733.792114 758.873779,762.844727 
	C756.833008,768.492615 753.722534,773.602722 751.005493,778.756653 
	C752.100220,780.904907 753.894836,780.661133 755.495056,780.633850 
	C771.980652,780.353027 788.465210,780.011963 804.950806,779.732910 
	C807.115540,779.696228 808.687500,778.892090 810.096741,777.222168 
	C846.024902,734.646790 873.871826,687.492432 890.958069,634.278564 
	C897.209412,614.809265 902.500916,595.019897 905.158203,574.749573 
	C908.372009,550.233704 911.464478,525.663879 910.428772,500.790802 
	C908.581665,456.433472 899.786011,413.474121 884.480774,371.886810 
	C874.507019,344.786133 860.940674,319.459534 845.976074,294.730408 
	C833.133850,273.508545 817.224854,254.759384 802.077820,235.354065 
	C796.730042,228.502869 793.339844,220.420776 788.081360,213.485123 
	C784.144653,208.292801 780.212219,203.181625 775.265869,198.892136 
	C774.077148,197.861237 772.513062,196.891006 772.511475,194.847107 
	C774.573792,193.845886 775.616943,195.523270 776.680847,196.561096 
	C792.653748,212.142929 809.620422,226.778458 824.068481,243.828293 
	C840.026001,262.659424 853.989319,282.968811 866.183289,304.471527 
	C884.085022,336.039124 898.019592,369.269135 907.711609,404.225189 
	C913.705261,425.842316 917.161255,447.994690 920.133789,470.193512 
	C923.013733,491.700439 923.485352,513.428101 922.008118,534.975708 
	C920.054382,563.475464 915.248474,591.702515 907.904663,619.347412 
	C892.722778,676.498413 866.267456,727.991394 828.442139,773.464783 
	C791.085510,818.374756 746.531799,854.408630 693.754517,879.755432 
	C657.880432,896.984436 620.332397,909.341675 580.843262,915.103027 
	C557.141541,918.561096 533.280640,921.124756 509.313721,920.986694 
	C478.995300,920.812134 448.970215,917.532227 419.424622,910.254578 
	C356.486816,894.752075 299.557007,867.322449 250.167908,825.051636 
	C220.025238,799.253357 193.897217,769.860291 171.757324,736.822205 
	C142.042038,692.479797 122.555450,643.964539 112.205421,591.844910 
	C105.821373,559.696777 101.972191,527.112488 103.765450,494.210297 
	C104.904289,473.315277 108.358261,452.669983 112.173546,432.096680 
	C118.648933,397.179199 130.351868,363.988220 145.934052,332.216248 
	C160.930511,301.638611 178.812561,272.781616 200.483276,246.385941 
	C202.159744,244.343918 203.598236,242.106476 205.148346,239.958481 
	C212.896683,245.967453 213.153152,252.135468 206.895508,259.257568 
	C191.993225,276.218506 180.000107,295.208893 168.993683,314.859283 
	C154.721161,340.340790 142.315475,366.672913 133.873779,394.674438 
	C127.353600,416.302124 122.380615,438.321808 119.309929,460.750061 
	C117.413498,474.601685 116.445908,488.521240 115.494858,502.450958 
	C114.867966,511.632782 116.147987,520.748047 116.607018,529.879150 
	C117.440239,546.453674 119.439217,562.937073 122.249756,579.307861 
	C127.841866,611.880554 136.896210,643.409912 150.613617,673.536743 
	C164.330307,703.662109 180.973068,732.014771 201.636749,757.943787 
	C215.573624,775.431885 230.940353,791.549561 247.675110,806.378113 
	C249.907303,808.356140 251.841766,810.666199 254.013779,812.716919 
	C258.196289,816.666016 262.535187,819.426147 268.979675,818.827454 
	C285.377106,817.303894 301.841339,818.680542 318.278259,818.642883 
	C330.249664,818.615417 342.197113,818.155884 354.196869,818.377808 
	C373.750397,818.739441 393.342712,816.730713 412.905365,816.943787 
	C437.193939,817.208313 461.480194,817.765442 485.774963,817.703369 
	C514.404236,817.630188 543.035339,817.824402 571.662659,817.566345 
	C590.969910,817.392273 610.286499,818.470886 629.589966,817.102173 
	C633.046204,816.857117 636.560181,817.446350 640.048706,817.625916 
	C641.416748,817.696350 642.956848,817.693054 642.939270,819.539734 
	C642.920593,821.500122 641.186340,821.282410 639.946960,821.274475 
	C626.450623,821.188416 612.943665,821.336060 599.461975,820.827026 
	C587.469604,820.374329 575.504456,820.024597 563.528015,820.905396 
	C551.715576,821.774048 539.889709,821.055603 528.094543,820.766479 
	C519.089905,820.545715 510.137451,820.886536 501.157501,820.987366 
	C487.506073,821.140564 473.846039,820.369263 460.191315,820.421570 
	C434.538483,820.519897 408.881317,822.156128 383.238342,821.063843 
	C357.082214,819.949890 330.970764,821.778931 304.832123,821.441040 
	C294.540558,821.307983 284.239075,821.968811 273.936096,821.395325 
	C272.039337,821.289734 269.920746,820.935486 268.344482,822.726929 
	C268.845703,824.882080 270.517548,826.038269 272.064636,827.256836 
	C277.161591,831.271057 282.230865,835.324219 287.422760,839.212830 
	C291.177612,842.025085 295.632355,842.476440 300.197693,842.691956 
	C333.499237,844.264771 366.807312,842.767822 400.110352,843.019836 
	C410.102173,843.095398 420.092224,843.457642 430.081879,843.732300 
	C432.379333,843.795471 434.678009,844.013611 437.900543,845.950195 
	C432.624695,846.415283 428.487793,847.077698 424.347778,847.097473 
	C393.515839,847.244690 362.683075,847.211609 331.851257,847.369202 
	C325.700684,847.400635 319.551971,847.989380 313.405029,848.364685 
	C311.935455,848.454407 310.162689,848.359009 309.608215,850.118713 
	C309.036713,851.932251 310.574585,852.839417 311.832672,853.589539 
	C317.267487,856.829956 322.738647,860.010315 328.224396,863.164062 
	C330.449524,864.443298 332.905365,864.717712 335.453949,864.714172 
	C363.284149,864.675110 391.114410,864.681091 418.944672,864.661865 
	C422.607300,864.659363 426.289032,864.475647 429.836792,865.620972 
	C435.257965,867.371094 440.669464,866.329773 446.092834,865.689941 
	C458.549438,864.220215 471.030426,865.745605 483.482849,865.440918 
	C523.952698,864.450684 564.434082,865.314270 604.895203,864.516663 
	C628.050598,864.060242 651.162598,865.783203 674.301270,864.965637 
	C675.465881,864.924500 676.699463,864.740234 677.790710,865.033264 
	C695.702759,869.841797 707.945496,858.045593 722.716553,850.033264 
	C718.336243,848.798279 714.974548,848.475586 711.536377,848.375244 
	C664.427368,846.999878 617.305969,847.458374 570.188293,847.389526 
	C547.377380,847.356140 524.566284,847.370972 501.755310,847.359924 
	C498.778473,847.358521 495.778778,847.443787 492.788635,845.464294 
	C496.761993,843.146179 500.912170,843.200867 504.980103,843.026123 
	C521.140137,842.331909 537.305176,843.618286 553.424377,843.402771 
	C573.400818,843.135681 593.382446,842.786438 613.365845,842.643616 
	C652.855347,842.361450 692.344238,842.009644 731.833069,841.650208 
	C733.640320,841.633789 735.697937,841.751343 737.207886,840.971619 
	C745.803223,836.533508 752.433594,829.457764 760.725464,824.052979 
	C757.766724,820.884705 754.668518,821.383728 751.781860,821.375488 
	C720.950439,821.287048 690.118591,821.278320 659.287476,821.136169 
	C655.712036,821.119690 652.139771,820.429565 648.566040,820.051758 
	C648.534058,819.630127 648.502075,819.208557 648.470154,818.786926 
	C651.836609,818.424866 655.194824,817.891663 658.570923,817.727356 
	C689.702026,816.212524 720.854370,816.913391 752.000183,816.898254 
	C757.156677,816.895752 762.330139,817.053711 767.405701,815.770447 
	C770.548096,814.975952 773.307922,813.727661 775.562439,809.638367 
	C731.545532,806.151733 688.181946,807.756104 644.445374,807.166443 
	C645.699585,803.724976 648.029968,804.748657 649.727478,804.676514 
	C680.029602,803.389160 710.356567,804.236145 740.667969,803.667358 
	C745.454956,803.577515 750.234558,803.299194 754.991638,801.682739 
	C749.805847,799.234314 744.189819,798.702087 738.637085,798.391785 
	C723.523315,797.547363 708.378601,797.532104 693.252686,797.133240 
	C673.279846,796.606628 653.317078,798.402710 633.387939,797.148376 
	C613.492554,795.896240 593.461121,797.360901 573.672302,793.759705 
	C564.913574,792.165771 556.451965,796.088562 547.853210,796.524170 
	C534.341492,797.208557 520.985779,801.091003 507.331116,798.740784 
	C506.296295,798.562744 505.402496,798.708557 504.415466,798.935425 
	C495.058044,801.086243 485.676544,798.589050 476.295807,798.964905 
	C473.965088,799.058289 472.824921,800.457397 471.190552,801.783447 
	C489.917114,804.202942 508.652039,804.010803 527.374512,804.027588 
	C546.503479,804.044800 565.701111,802.965759 584.742004,804.247681 
	C603.565796,805.515015 622.462830,801.520935 641.438416,804.853760 
	C640.561401,808.078979 638.580322,807.261108 637.116272,807.285706 
	C610.154358,807.739929 583.183716,807.871826 556.231873,808.655396 
	C540.479065,809.113403 524.770935,808.131165 509.030426,808.288879 
	C478.504578,808.594910 447.985046,807.409058 417.440399,808.131165 
	C399.018555,808.566650 380.560303,807.193054 362.114258,806.962402 
	C348.300751,806.789551 334.480774,807.166992 320.663361,807.236267 
	C318.635590,807.246399 316.368622,807.756226 313.794830,804.782166 
	C359.452698,804.262756 404.048645,803.755432 448.644623,803.248169 
	C448.661530,802.735046 448.678406,802.221924 448.695312,801.708801 
	C444.603851,799.500122 440.038605,799.431152 435.559113,799.706726 
	C424.305481,800.398987 413.095673,800.285461 401.835754,799.544861 
	C393.038513,798.966248 384.174835,799.477905 375.344666,799.303345 
	C359.373322,798.987671 343.299927,799.182495 327.580780,796.170044 
	C318.382416,794.407288 309.346008,792.589478 299.948486,793.246033 
	C289.720367,793.960693 279.487274,794.605469 269.254364,795.248779 
	C267.664551,795.348755 265.951508,795.655090 264.301422,793.569275 
	C269.727905,791.903381 274.865417,791.275574 280.016663,791.782166 
	C286.151978,792.385559 289.221649,787.242737 293.801575,784.979431 
	C295.287354,784.245178 294.436615,782.333618 294.114258,780.846375 
	C290.206696,762.817627 300.459534,749.895325 318.943176,749.734070 
	C323.578461,749.693604 325.837372,747.831482 326.790619,743.258911 
	C328.243591,736.289368 327.930298,729.280029 327.465057,722.359924 
	C326.028442,700.991272 323.946381,679.688110 320.980560,658.448669 
	C319.145477,645.306641 317.129944,632.218140 314.863678,619.149475 
	C313.695374,612.412354 310.931396,606.781433 305.568451,602.606995 
	C299.889740,598.186768 295.068939,592.879333 289.826965,588.009399 
	C288.482483,586.760315 287.236542,584.666260 284.863007,586.872925 
	C283.385376,588.246643 282.035492,587.086243 281.026764,585.915466 
	C268.329773,571.179138 254.851761,557.091492 246.180954,539.264648 
	C239.160690,524.831360 234.639877,509.934937 234.642319,493.801300 
	C234.642441,492.969635 234.610077,492.134308 234.522064,491.308228 
	C234.490692,491.013947 234.249039,490.742065 234.080856,490.416351 
	C232.650665,490.034454 232.077774,491.244843 231.272720,491.983459 
	C230.566650,492.631256 230.218018,493.721893 228.402222,493.769135 
	C225.476990,487.482361 226.765701,480.698151 226.981995,474.049225 
	C227.068192,471.399750 227.418365,468.747620 227.817078,466.122314 
	C228.358856,462.555084 227.607162,460.157257 223.454758,460.765869 
	C222.345612,458.544891 222.786041,456.626617 223.160675,454.636902 
	C225.759476,440.834137 230.369461,427.687653 235.941223,414.841888 
	C239.267929,407.172150 241.335251,399.144135 242.482605,390.878571 
	C242.609818,389.962128 242.319122,388.987610 242.231415,388.129852 
	C238.316086,387.176056 234.422226,388.007660 231.055542,388.194458 
	C219.024384,388.862000 216.447678,387.653381 208.071915,378.955658 
	C201.615906,372.251526 198.719803,363.820984 193.786194,356.450745 
	C190.905533,352.147339 191.583878,347.197357 195.325119,343.739227 
	C203.678329,336.018066 206.031052,326.945160 203.970856,315.743439 
	C201.082520,300.038879 209.275070,288.597260 220.443848,278.861572 
	C222.687485,276.905853 225.157440,275.031982 227.833679,273.789368 
	C232.592499,271.579803 232.715149,268.552795 231.068146,264.107208 
	C228.158829,256.254333 223.566025,249.271179 220.054657,241.283569 
M246.410492,371.516479 
	C250.866226,374.149689 255.026428,377.320831 260.369049,379.551575 
	C263.511047,382.770599 267.567657,385.512665 267.025208,391.439331 
	C264.631561,389.979553 265.004700,387.268738 262.447418,386.423950 
	C262.409088,391.341400 261.433838,395.905609 259.567413,400.401947 
	C256.399445,399.046448 255.612915,395.662750 252.338806,393.710205 
	C254.975250,400.586945 258.381287,406.702362 256.655945,414.151367 
	C253.428085,412.503815 253.125381,408.913879 249.301758,407.589447 
	C242.599915,420.935303 236.711655,434.471466 232.722061,448.853210 
	C237.530304,446.795227 237.850388,440.199463 244.469513,439.131531 
	C240.420059,451.384735 234.247879,462.609344 235.515808,476.461243 
	C239.546356,471.521576 239.650345,465.330109 245.368134,461.044922 
	C244.435974,475.240417 242.240479,488.258850 244.125107,501.489441 
	C246.805664,520.307495 250.747940,534.153625 255.982788,538.432190 
	C258.233429,534.288574 251.512115,528.674866 258.531555,524.790894 
	C263.558777,536.870239 264.894226,550.248413 273.715729,561.960999 
	C275.044159,553.897766 269.485718,548.250671 271.514435,541.525085 
	C281.041962,553.096069 284.148224,568.677612 295.742676,579.198059 
	C297.760284,574.680664 293.724030,570.820496 295.793457,565.945129 
	C302.605042,574.051880 306.452789,583.374207 313.481384,590.644836 
	C308.697021,574.263611 303.522308,558.052002 305.284485,539.922424 
	C307.818970,541.794983 308.036316,543.398865 308.318604,545.066833 
	C311.608826,564.508972 318.098877,582.781555 329.544861,598.928955 
	C342.293304,616.913696 348.896912,636.912659 351.483398,658.624695 
	C352.704620,668.875793 353.334930,679.139771 353.809143,689.411682 
	C354.553467,705.534119 354.950470,721.667908 353.603546,737.809631 
	C353.203400,742.604736 351.090942,747.317993 352.166290,752.377747 
	C355.088562,752.173645 355.970398,750.199951 356.437805,748.381958 
	C357.961609,742.454651 359.270294,736.508667 359.898743,730.354431 
	C360.636719,723.127686 358.027435,715.782104 362.214569,708.444702 
	C363.722504,705.802246 362.704376,700.182251 361.775543,695.841431 
	C360.082275,687.927673 359.328278,679.815796 360.361694,671.682556 
	C362.057404,676.506958 361.894073,681.695496 364.121094,686.356628 
	C363.706512,672.254150 361.154968,658.373718 359.814850,644.313721 
	C363.992371,648.263062 362.920685,654.254517 366.217163,660.007385 
	C365.312683,649.294495 364.695435,639.988281 362.263123,631.002869 
	C364.944733,630.121216 365.087250,633.176636 367.198730,632.910400 
	C369.793823,628.241943 364.682617,624.263062 365.588898,620.016724 
	C366.897064,618.295410 368.699066,620.799927 369.887085,618.875000 
	C369.546326,611.732300 363.197876,606.470642 362.203186,598.294617 
	C366.552521,600.743713 368.110779,604.898926 372.500885,606.463196 
	C369.068146,597.928711 364.774872,590.470032 362.594269,581.444458 
	C368.759644,583.617004 368.832001,590.176514 373.486511,592.617554 
	C372.310394,585.517456 367.748016,579.450012 367.472839,571.226929 
	C371.630798,574.283081 372.494873,579.119934 378.238678,581.078979 
	C375.972687,571.884521 369.581451,565.102661 369.213318,555.228760 
	C373.586182,560.911255 375.577576,566.970764 381.504517,570.130920 
	C374.371460,555.248108 369.256500,539.993713 369.613983,523.317322 
	C374.235413,535.467407 376.792450,548.424438 385.033539,559.022522 
	C382.187866,544.949158 375.854980,531.747742 375.690399,517.176270 
	C375.528442,502.835388 375.522491,488.507874 380.955444,474.809052 
	C379.818390,486.687897 378.669800,498.520691 379.227234,510.481171 
	C379.770355,522.134094 385.173889,539.851562 390.441223,543.942871 
	C385.798889,524.867920 381.479980,506.212219 386.418610,486.791534 
	C389.635132,512.807251 391.241272,539.256104 411.559509,559.099792 
	C409.758881,552.610107 406.023376,546.746765 404.823517,538.863464 
	C411.875946,543.300415 414.058899,551.430298 421.595856,553.637878 
	C418.151794,542.667358 410.231781,533.368774 410.546478,519.921387 
	C416.484161,528.827820 420.165222,538.011414 429.352417,542.791809 
	C425.381378,533.182617 419.270233,524.500305 418.618530,513.716797 
	C426.240448,523.715149 432.268463,534.975159 443.199249,542.057617 
	C440.127838,534.309326 434.173431,528.171997 431.245178,519.130310 
	C437.308136,523.104858 439.222534,529.785156 445.500519,532.680054 
	C446.956482,524.052002 439.926453,517.654236 441.329926,509.767334 
	C444.012604,514.291382 445.993591,519.014282 448.111237,523.675171 
	C450.157471,528.178772 451.463348,533.157349 455.814880,536.367615 
	C454.217682,524.775391 450.467407,513.757507 448.114960,502.359802 
	C455.146606,510.362152 456.182892,521.324951 462.564667,529.718079 
	C463.259613,518.833252 458.266174,508.853699 457.700012,498.128845 
	C463.221954,507.560669 466.261292,517.998169 471.103394,527.748657 
	C471.799652,517.145081 466.982361,507.282990 467.056335,496.764282 
	C472.821960,505.404388 474.778778,515.532776 479.173584,524.711426 
	C481.203491,514.141479 476.220001,504.450348 475.707489,494.149323 
	C481.894135,501.320496 482.534546,511.177521 487.762451,518.859985 
	C488.510529,509.581696 485.352448,500.875305 484.569000,491.845520 
	C490.516388,500.576843 492.718262,510.889709 497.434021,520.137451 
	C497.918274,510.687988 494.994965,501.685913 494.484375,492.307404 
	C499.963593,501.602295 502.907623,511.908264 507.151062,521.683838 
	C506.923279,511.056244 505.067657,500.705872 503.930908,490.219360 
	C509.070404,498.320435 511.363007,507.563629 515.185486,516.184631 
	C517.556152,506.136261 512.373413,496.962524 512.308838,487.205505 
	C517.489441,493.323151 518.746582,501.361908 523.257812,509.092072 
	C525.387207,498.790222 521.296570,490.598328 520.381165,482.005188 
	C526.327881,488.313049 527.410034,496.927826 531.315796,504.231384 
	C534.058655,496.205353 530.567078,488.765839 529.498413,479.790955 
	C536.989075,487.596436 535.645996,498.064728 541.368408,505.221313 
	C543.764160,497.129669 540.017822,489.647522 540.158203,481.804749 
	C545.743103,490.056519 547.049011,499.971222 551.175049,509.718384 
	C554.149719,500.108612 549.675110,491.583160 550.507263,482.895813 
	C555.007935,488.643127 555.620239,496.126678 559.985352,503.262970 
	C561.675720,492.236298 558.086914,483.359741 556.486206,474.057251 
	C562.478699,480.699493 564.189209,489.373688 567.766479,497.239258 
	C569.697571,489.707489 567.140442,482.563812 566.895569,475.236481 
	C573.151550,482.666107 574.165771,492.242706 577.769897,501.450378 
	C580.310974,490.546753 576.318726,481.073273 575.044067,471.267700 
	C584.702881,483.317017 585.892822,498.269745 589.052246,512.555725 
	C591.062500,497.208313 589.556152,482.417511 583.155884,468.238251 
	C596.069092,480.862305 595.245300,498.326202 599.472290,514.003601 
	C600.252258,505.957489 601.558716,497.995026 599.521240,490.103333 
	C597.513489,482.326569 595.728455,474.470551 592.403442,467.059174 
	C603.256409,478.233276 606.638367,492.431519 608.869690,507.174316 
	C609.442078,492.495300 607.227478,478.360168 601.397705,464.705383 
	C607.344421,470.700165 611.960754,477.431335 614.215576,485.414948 
	C618.283630,499.818512 617.277161,514.408081 614.710693,528.908813 
	C611.813232,545.279846 607.867981,561.514648 609.360107,578.354858 
	C609.845825,583.836853 611.718872,588.891357 613.846985,593.953430 
	C614.465820,592.431030 614.659424,590.986572 614.608215,589.550781 
	C614.329224,581.736633 613.931885,573.926331 613.698730,566.111084 
	C613.598999,562.765381 614.255249,559.620789 617.960388,557.146851 
	C616.500061,570.425598 617.369263,583.007690 621.217163,595.126221 
	C625.004761,607.054688 629.217590,618.935120 638.291992,628.143921 
	C639.679504,623.392578 636.113831,619.179932 638.596313,614.316895 
	C646.058838,631.772339 656.499817,646.583679 672.776123,656.485291 
	C674.549622,654.955627 672.725830,653.260681 674.107300,651.533875 
	C681.682739,657.367676 688.120972,664.684265 696.739807,669.277039 
	C695.787598,662.753296 688.381226,659.837463 687.114929,653.085022 
	C691.180237,653.003906 691.855286,657.453735 695.923157,656.613281 
	C692.456604,650.584900 688.288696,645.204712 688.531250,638.085510 
	C692.882324,638.726074 691.851685,636.493103 690.987671,634.035095 
	C687.164307,623.159363 683.201843,612.267212 688.555847,600.678345 
	C689.180237,600.977539 690.008240,601.374329 691.062134,601.879333 
	C690.795776,598.135376 690.719849,594.695007 689.933777,591.245789 
	C687.867493,582.178711 686.001221,573.063782 684.226440,563.934631 
	C683.861084,562.055298 682.814026,559.747437 685.429016,557.886353 
	C688.139954,563.902832 687.090088,570.903076 692.382446,575.946472 
	C691.383728,560.444458 690.384949,544.942444 689.386230,529.440491 
	C690.072388,529.351440 690.758545,529.262390 691.444702,529.173340 
	C695.815369,540.220947 694.366882,552.838867 699.886292,563.670288 
	C698.643555,543.741760 696.711792,523.965027 693.562317,504.245422 
	C699.489746,517.625916 703.092041,531.727844 706.961182,545.817566 
	C709.401489,533.944397 703.167114,522.618652 704.920288,509.578674 
	C710.874573,518.279114 711.158447,527.952026 715.914429,535.810425 
	C715.920471,523.332275 710.945740,511.651459 710.387207,499.232483 
	C713.940552,505.578705 716.330322,512.374634 721.060974,517.968994 
	C720.014099,506.613098 715.705994,496.115265 713.075439,485.163239 
	C719.432983,489.776794 720.081665,498.168060 725.917664,503.035309 
	C721.137207,483.983368 712.307312,466.949310 700.570007,451.250061 
	C713.819031,464.370789 722.283203,480.846588 733.123169,495.629791 
	C726.758667,474.343994 715.578125,455.838623 700.145508,438.896576 
	C703.476562,438.700195 704.019775,440.345764 705.006653,441.313507 
	C713.861633,449.996857 720.638916,460.335541 728.006470,470.206909 
	C729.570984,472.303162 730.785156,475.086212 735.127380,474.912170 
	C727.318909,458.593689 717.495239,444.489624 706.439575,431.104156 
	C718.936218,439.381165 726.729492,452.053436 737.179138,462.289337 
	C733.182068,448.371277 721.642151,439.306885 714.896301,427.200348 
	C724.608765,433.000854 730.779785,442.710114 739.914429,449.161621 
	C734.995300,439.573761 728.197144,431.416809 722.150085,422.597778 
	C729.824036,426.230499 734.220337,433.743286 741.555420,439.165894 
	C741.403198,433.940002 738.214478,431.743958 736.025513,429.032837 
	C733.832092,426.316193 731.463745,423.732727 729.063599,421.193420 
	C726.724182,418.718201 723.995422,416.553955 722.843628,413.191956 
	C729.495300,416.422424 734.428345,421.809204 741.302795,426.858551 
	C740.397827,421.823395 737.762329,419.909729 735.610535,417.782562 
	C732.058411,414.271118 728.095337,411.164398 724.652588,407.555908 
	C719.558289,402.216248 720.305969,398.886871 726.881958,396.097717 
	C728.565857,395.383484 730.367981,394.945312 732.042847,394.213257 
	C735.540466,392.684448 739.201965,391.359314 742.394226,387.492493 
	C737.299500,389.749878 733.215393,391.704926 728.169373,391.880127 
	C735.331177,383.403015 744.211548,376.644287 750.142456,367.252594 
	C744.488770,371.035797 740.628906,377.301941 733.346375,378.692078 
	C737.576843,371.821960 743.065308,366.052277 747.582581,359.530853 
	C753.405090,351.125366 756.719971,344.097809 756.631714,337.685242 
	C753.816284,342.832947 751.410400,347.555237 748.709900,352.102631 
	C742.955139,361.793457 742.141052,362.599121 737.554932,363.991333 
	C746.315430,349.525482 753.543640,335.087128 752.532288,318.075775 
	C748.681458,327.968292 748.730774,339.468689 740.226746,347.513733 
	C743.793884,336.345795 746.564819,325.159119 744.494324,312.768646 
	C743.510742,317.292725 743.319092,321.422485 740.520325,325.986084 
	C737.522461,317.346497 740.196716,308.450073 735.329224,301.321716 
	C734.841553,309.305237 737.850525,317.264771 734.947021,325.174591 
	C732.735779,317.562592 733.323853,309.389069 729.802429,301.662811 
	C728.152405,303.833649 728.804810,305.413055 729.098572,307.054626 
	C732.823242,327.867920 728.905212,347.155365 716.910706,364.567322 
	C712.618408,370.798401 707.035706,375.989319 699.398254,377.959961 
	C689.310364,380.562897 679.179565,381.210938 668.837585,378.750763 
	C654.005615,375.222504 639.335144,371.195801 624.147583,368.915527 
	C597.644714,364.936340 571.152527,364.425140 544.598938,366.572662 
	C518.109192,368.715088 492.003662,373.605682 465.982635,379.012909 
	C449.451843,382.448029 433.116089,387.672211 415.857880,386.294495 
	C415.633820,386.276581 415.375824,386.683533 414.877991,387.112488 
	C417.922760,392.774475 424.464905,396.841400 424.329712,405.042053 
	C419.913239,402.651917 419.447601,397.519470 414.881989,395.767303 
	C420.221954,414.076782 421.533447,431.914490 417.482666,449.903717 
	C414.922058,436.453705 415.274994,422.682892 411.655548,409.295197 
	C408.246948,428.431061 402.927277,446.665436 393.748566,464.225555 
	C391.985626,461.757660 392.926453,460.020630 393.335449,458.341095 
	C396.207031,446.548187 399.888763,434.957458 402.127808,423.005707 
	C402.564087,420.676910 403.194916,418.362396 401.446564,415.969910 
	C393.848785,440.843231 375.486969,460.619659 369.723236,486.251617 
	C370.471252,464.979401 383.125092,448.186859 391.377014,429.757538 
	C390.808533,429.480743 390.240082,429.203949 389.671631,428.927155 
	C382.144897,441.017090 374.618195,453.107056 367.091461,465.196991 
	C370.437592,450.816223 379.033447,438.818512 385.051849,425.697266 
	C384.655914,425.499268 384.259979,425.301300 383.864014,425.103302 
	C378.081055,431.944427 372.298096,438.785553 366.515137,445.626678 
	C366.133026,445.351654 365.750946,445.076630 365.368835,444.801605 
	C368.509094,437.418610 373.395142,430.950165 377.362854,423.862762 
	C371.220276,427.409576 367.803375,434.370728 360.245270,436.186401 
	C360.318298,431.419159 365.331726,429.776703 366.048065,425.163177 
	C360.947571,427.061646 358.480469,432.007385 352.485931,433.967896 
	C355.709900,427.288605 361.194336,423.841431 364.255615,418.673737 
	C367.489990,413.213898 370.095551,407.451263 370.244843,400.843384 
	C366.951050,407.222839 362.492218,412.947815 359.717163,419.444122 
	C357.792938,423.948669 354.716278,424.198212 349.530487,425.162842 
	C355.373260,417.944855 358.288025,410.811371 360.789490,403.439178 
	C363.317261,395.989594 365.025604,388.424347 365.773468,380.588654 
	C366.510162,372.870117 366.211029,361.287384 364.501099,357.779053 
	C366.444733,369.406616 364.985321,380.707855 361.203461,391.678253 
	C354.081818,412.336700 350.518494,418.307922 344.095795,420.797882 
	C345.204773,416.405579 347.325104,412.665039 349.000275,408.743225 
	C355.124359,394.405762 360.153076,379.788300 358.599274,363.836456 
	C357.467346,352.215302 355.128815,340.855927 351.275360,329.766479 
	C348.613617,322.106415 343.116058,316.800842 337.902008,310.355865 
	C337.019196,313.551819 338.444489,315.376678 339.323914,317.229187 
	C341.466614,321.742645 343.855194,326.138672 346.097595,330.605652 
	C358.756714,355.823151 356.408051,380.795013 344.732544,405.554474 
	C343.571411,408.016815 342.207031,410.580902 338.273834,412.006653 
	C344.871887,396.253235 351.247528,381.239685 350.803528,364.623444 
	C350.364258,348.185089 347.087921,332.629486 336.043549,319.873047 
	C335.532684,320.022675 335.021820,320.172272 334.510956,320.321869 
	C335.926727,325.806702 337.342529,331.291534 338.985657,337.657074 
	C335.153656,335.163330 335.285950,330.647400 331.485352,329.305786 
	C331.369995,330.150116 331.244995,330.634155 331.250092,331.116882 
	C331.260651,332.115845 331.229187,333.134521 331.408142,334.109619 
	C334.772339,352.443115 328.911377,368.929169 321.178436,385.020020 
	C320.586975,386.250732 319.959137,388.889771 318.593933,388.092896 
	C316.145203,386.663666 315.540131,388.300873 314.904022,389.561737 
	C308.532257,402.191833 297.965759,411.315552 288.376892,421.215027 
	C283.989716,425.744293 279.367554,430.181458 273.386810,433.000824 
	C284.170135,421.005005 294.786316,408.992828 300.662750,393.049957 
	C303.262451,396.321777 300.932922,398.319550 301.037231,401.220856 
	C305.472534,394.337250 308.616364,387.624512 309.326447,380.302460 
	C310.865326,364.434143 308.813629,349.216431 298.544800,335.918915 
	C305.829407,340.734344 309.331268,348.208954 313.746674,355.881592 
	C312.040710,340.978027 302.634949,332.008026 292.323944,323.516754 
	C299.444550,323.387756 303.324738,329.321899 309.356232,331.798981 
	C304.885742,323.358459 296.847076,319.850372 288.499329,314.658661 
	C295.184418,314.087769 299.337280,317.046997 304.096130,317.571960 
	C296.866608,310.698242 286.790955,309.491211 277.662964,304.887482 
	C283.082947,302.048004 288.010162,306.184937 293.436737,303.995544 
	C288.639465,300.150940 282.744659,299.925903 278.136932,296.550171 
	C280.660217,294.841278 283.589935,296.476379 286.122375,294.689972 
	C279.181458,290.398712 271.241394,290.231262 263.713928,287.796722 
	C266.387207,284.635040 270.221436,285.721100 272.787170,283.217957 
	C268.589783,281.358826 264.306213,283.136108 259.990295,281.663940 
	C263.856079,278.208099 268.668243,279.561859 272.606659,277.589142 
	C268.841125,273.642426 263.681305,276.696259 259.515259,274.383331 
	C261.796570,270.928955 265.857635,270.943970 268.594055,269.114044 
	C263.656219,266.005341 259.033112,264.018677 253.083282,266.541016 
	C241.883026,271.289215 232.127426,278.053406 223.091919,286.001373 
	C221.708359,287.218384 219.917465,288.603241 220.836151,290.933258 
	C222.938217,292.113129 224.241577,289.748718 226.037292,289.976440 
	C227.443558,291.442322 225.236206,293.704407 227.171097,294.959778 
	C230.576996,295.556091 233.384491,292.149292 237.074066,293.329651 
	C236.201141,295.553101 233.666138,296.007233 233.171066,298.520386 
	C237.334488,298.726715 241.733368,299.817719 243.364441,303.306091 
	C245.490616,307.853394 248.527145,309.930023 252.414520,310.210388 
	C255.130112,321.246399 266.168457,321.677307 272.727539,327.191193 
	C270.132568,329.792023 267.209991,326.085114 264.741028,328.589386 
	C268.285095,332.356323 274.651123,332.164490 276.805908,337.362976 
	C274.522491,339.368927 272.406311,337.085144 269.789093,337.957062 
	C276.834381,342.320374 280.936676,348.164215 282.900848,356.081268 
	C279.214844,355.219727 278.821075,351.502167 275.702240,349.573608 
	C278.086182,356.166229 281.097900,361.702271 281.984863,368.215179 
	C278.652161,367.187286 278.448059,363.466034 275.410400,362.269104 
	C276.158264,368.635681 280.379272,374.289276 278.118317,380.859070 
	C275.631836,375.859283 273.767151,370.628967 269.562592,366.383057 
	C269.598724,370.295776 271.780731,373.617676 271.010712,377.001434 
	C269.519287,378.247864 268.948822,375.801270 267.954742,376.546082 
	C267.797607,378.789886 269.693726,380.615417 268.667114,383.139557 
	C265.634888,381.696625 262.813812,380.354187 259.635742,378.444672 
	C255.493118,375.208313 250.975830,372.662292 245.453033,370.570557 
	C238.974762,367.495819 232.642105,364.028259 225.351547,363.141052 
	C232.268036,365.675201 238.648087,369.617004 246.410492,371.516479 
M401.556854,751.851135 
	C398.709473,761.735474 394.508698,771.093628 390.015747,780.106689 
	C391.302704,781.415222 392.481140,781.515381 393.638123,781.607361 
	C412.178070,783.082275 430.702728,784.824890 449.228790,786.326660 
	C467.773529,787.829895 486.480316,788.071899 505.146515,787.707153 
	C514.130066,787.531494 523.261719,787.690735 531.886108,785.460754 
	C541.923157,782.865417 542.616882,784.934814 542.676636,773.106506 
	C542.684937,771.462280 542.818787,769.765320 543.240845,768.185242 
	C546.313721,756.679932 555.683655,749.196533 567.966431,749.837280 
	C576.080994,750.260681 581.800720,747.897827 585.862793,740.931885 
	C590.486511,733.002686 594.642822,724.840942 597.914307,716.282227 
	C602.539246,704.182434 602.200134,692.566345 593.962036,681.797302 
	C591.134705,678.101257 588.662598,674.140076 585.544250,670.645935 
	C576.278625,660.263733 568.670166,648.800354 562.823242,636.137573 
	C556.216980,621.830139 551.353882,607.093140 550.635620,591.205017 
	C550.533875,588.955017 551.347839,586.325012 548.839905,584.845520 
	C546.088989,583.222717 544.139709,585.393677 542.074524,586.649536 
	C539.941162,587.946899 537.942444,589.472229 535.774841,590.704285 
	C534.291321,591.547485 532.769531,593.047180 530.911011,591.609863 
	C530.189270,589.476624 532.519958,587.905029 531.703491,585.581116 
	C522.123596,588.356018 516.796021,597.905396 507.389862,600.768616 
	C505.551971,595.518738 504.932251,595.326538 501.111053,598.654114 
	C499.604401,599.966187 498.216980,601.420837 496.664825,602.673767 
	C494.346619,604.544922 492.134338,608.407043 489.635742,607.828552 
	C483.897644,606.500000 483.196655,610.898376 480.937378,613.707764 
	C478.425323,616.831421 476.994781,621.024963 472.372772,622.605957 
	C471.797272,618.865540 474.161835,615.274475 471.154114,610.771057 
	C468.226166,621.209656 462.281921,628.500854 455.125305,636.338562 
	C454.690735,629.098083 458.998322,622.886292 454.525543,615.938171 
	C450.165405,623.491638 448.910187,631.781433 442.726044,636.911194 
	C441.172119,636.195190 442.511414,634.606262 441.187775,634.284424 
	C439.204956,637.465576 441.335754,642.088440 437.415741,644.845337 
	C435.669159,642.274292 438.290314,637.674500 432.840820,636.529846 
	C429.679016,649.202332 429.534302,662.360596 425.661102,674.411682 
	C423.090271,674.592468 423.346771,671.351746 420.843719,672.169983 
	C418.986511,679.820190 422.249512,688.200928 418.711975,695.661743 
	C416.065582,695.430786 416.416992,692.785645 414.371033,692.282837 
	C412.744141,695.595825 413.351776,699.032166 413.714020,702.434143 
	C414.034912,705.448059 414.464752,709.946655 412.434326,710.843201 
	C408.662567,712.508667 408.772705,715.393372 408.502350,717.988647 
	C407.328949,729.252136 404.993011,740.251343 401.556854,751.851135 
M538.334656,283.162537 
	C539.053040,285.929169 539.181458,288.960114 542.461426,291.955841 
	C542.582886,280.720337 539.464111,270.147583 544.846802,259.412415 
	C546.992981,266.753784 544.474487,273.213837 546.105164,279.607849 
	C547.760864,286.099579 550.941895,294.907776 553.562622,297.125214 
	C549.744751,275.193542 549.537964,270.183350 553.277039,267.212433 
	C553.873657,274.461456 554.948975,281.138123 559.211975,287.621368 
	C561.078552,280.836700 557.894592,274.451782 560.164917,268.910889 
	C562.192444,268.186707 562.338013,270.559570 563.942505,269.830505 
	C566.648071,259.696259 570.470581,249.814651 574.641724,240.095016 
	C581.004089,225.269531 590.341553,212.784317 604.432007,204.316727 
	C616.289307,197.191147 629.317505,193.447067 642.784058,190.953720 
	C665.187805,186.805649 687.100037,187.177170 708.220032,197.201874 
	C713.698120,199.802109 718.844971,203.090240 724.643494,205.038406 
	C710.933838,194.010193 695.110718,187.050568 678.625793,181.083038 
	C694.527649,181.436752 708.058350,189.509567 722.691895,194.290466 
	C712.036621,182.897705 697.421570,178.865585 684.080933,172.470261 
	C701.594421,174.615265 716.736328,182.655487 731.772766,191.116577 
	C729.828552,187.056931 726.702515,184.424774 723.144958,182.224899 
	C709.865845,174.013458 695.377014,168.728745 680.356079,164.863541 
	C662.840332,160.356400 645.217712,157.952866 627.211060,162.397659 
	C611.470703,166.283081 596.184387,171.248718 582.011292,179.278076 
	C577.660034,181.743134 573.119629,183.993805 569.997314,188.055771 
	C566.526855,192.570663 562.459656,196.514084 558.415100,200.459000 
	C547.915222,210.700150 541.075989,223.177246 536.112122,236.750534 
	C533.217468,244.665543 531.716003,252.888550 532.636536,262.523773 
	C536.166016,256.999298 535.103577,250.647903 539.849426,246.794922 
	C537.558350,258.614319 536.033752,270.395111 538.334656,283.162537 
M558.464172,893.908081 
	C561.953125,894.073792 565.450073,894.141052 568.929749,894.421875 
	C585.372986,895.748901 601.803467,894.041382 618.231384,893.884705 
	C627.029846,893.800842 635.654419,889.896423 644.105042,886.836853 
	C644.954773,886.529236 646.211975,886.437988 645.709595,884.427124 
	C642.577698,884.212769 639.272644,883.986511 635.967651,883.760254 
	C649.635864,876.619446 666.475525,882.600159 679.342285,872.383972 
	C677.036072,870.281616 674.522644,870.359680 672.010498,870.356567 
	C655.183472,870.335632 638.356506,870.272278 621.529480,870.271057 
	C554.239441,870.266296 486.949371,870.272522 419.659302,870.290100 
	C401.187775,870.294922 382.715942,870.301758 364.244995,870.424622 
	C359.763153,870.454468 355.052185,869.636414 350.159027,872.935303 
	C355.710541,876.933655 361.085358,879.459656 367.412842,879.689209 
	C376.700684,880.026245 385.978027,881.002197 395.289764,879.981262 
	C397.403381,879.749451 399.581360,880.015564 401.024780,882.951111 
	C393.680542,884.007690 386.511139,882.496338 379.184448,884.635376 
	C380.171906,885.370911 380.629059,885.909302 381.204315,886.111206 
	C398.967896,892.345032 416.894684,896.999756 436.107086,895.270691 
	C446.849792,894.303833 457.715698,893.965271 468.510132,893.850525 
	C498.161255,893.535278 527.818970,893.837158 558.464172,893.908081 
M718.302795,731.818848 
	C719.312744,726.273438 720.412842,720.742676 721.311890,715.179321 
	C722.722046,706.452515 720.567322,698.823303 713.232727,693.485107 
	C700.020081,683.868958 685.100525,677.017517 671.426636,668.129822 
	C669.537048,666.901794 667.671204,667.581970 667.843384,669.619873 
	C668.270996,674.679871 668.606995,679.486694 664.386719,683.326477 
	C664.032288,683.648926 664.341553,684.628235 664.203735,685.272766 
	C663.060974,690.613647 663.291199,696.317566 660.804504,701.288818 
	C648.025330,726.835693 636.817322,753.359802 616.224060,774.134827 
	C615.183289,775.184814 614.067383,776.504089 614.817993,778.105896 
	C615.565857,779.702148 617.275085,779.603821 618.770325,779.613220 
	C636.735535,779.726257 654.693970,780.757263 672.668030,779.918823 
	C676.296509,779.749573 678.151306,778.745300 678.924438,774.618469 
	C681.529663,760.712952 691.450684,752.449158 705.075256,752.807495 
	C709.894226,752.934265 712.199707,750.857361 713.529968,746.854431 
	C715.102112,742.123047 716.520874,737.340698 718.302795,731.818848 
M503.443359,899.383301 
	C479.901001,900.342834 456.343567,897.325012 432.805389,899.727783 
	C486.970642,912.357422 541.130310,909.500305 595.289490,899.480957 
	C564.999878,898.772217 534.704407,901.021790 503.443359,899.383301 
M592.978638,745.351379 
	C587.472351,754.691040 580.264526,759.914795 568.473328,758.343445 
	C560.203979,757.241516 552.476562,764.372070 550.979675,772.331604 
	C550.329224,775.790283 551.186829,779.036926 554.558167,780.144226 
	C558.502441,781.439758 558.265503,777.624268 559.108643,775.268921 
	C560.357483,771.779968 562.307373,768.924500 566.183289,767.969055 
	C566.897827,769.165100 566.221924,769.823181 565.911743,770.522583 
	C563.032959,777.013672 566.597351,782.189026 573.669922,781.829468 
	C579.156921,781.550598 581.802185,778.244934 584.310547,773.628052 
	C587.728149,767.337646 587.400757,759.885803 591.704895,753.894592 
	C598.822327,743.987366 603.825989,732.916504 607.569214,721.321716 
	C608.726440,717.737061 609.288757,713.960449 610.123474,710.271729 
	C609.692200,710.143250 609.260864,710.014709 608.829590,709.886169 
	C604.437805,721.855164 599.627747,733.630249 592.978638,745.351379 
M718.413940,784.130432 
	C723.836121,784.395447 727.792114,781.905212 728.721924,777.641846 
	C730.315613,770.334717 729.234680,768.157349 723.057983,765.621338 
	C716.156738,762.787720 708.986633,761.944702 701.599792,762.324219 
	C692.964417,762.767944 686.291687,771.442810 688.404602,779.771790 
	C689.291870,783.269592 691.619629,786.038025 695.419250,785.581238 
	C699.143677,785.133545 699.909607,781.577637 700.413452,778.392273 
	C700.532776,777.637573 699.892700,776.788635 699.899719,775.985596 
	C699.924927,773.123657 700.745300,770.809570 704.185059,770.492432 
	C705.393127,783.750427 709.014832,787.361755 718.413940,784.130432 
M330.905396,783.397705 
	C332.080719,785.435242 333.253143,787.784790 335.987122,787.559509 
	C339.013885,787.310059 338.259155,784.416321 338.890930,782.491638 
	C339.510559,780.604004 340.139771,778.670715 341.125641,776.966187 
	C342.041992,775.381836 343.400970,773.956238 345.708618,775.765198 
	C344.106079,779.640503 343.486511,783.522400 347.340881,786.544556 
	C350.015411,788.641541 353.099518,789.367920 356.206146,787.762329 
	C360.295502,785.648682 364.374359,783.447449 368.182983,780.876831 
	C372.038910,778.274475 371.841522,772.775330 367.732758,770.568970 
	C362.507507,767.763062 357.131439,765.492126 351.177490,764.043823 
	C339.520721,761.208374 329.059570,772.613159 330.905396,783.397705 
M569.072083,630.561401 
	C574.959656,651.357727 592.027039,664.438354 603.709351,681.288147 
	C597.500793,661.085022 583.779663,644.547913 577.404907,624.437622 
	C576.685425,630.544922 579.217346,636.011353 579.557495,641.869080 
	C573.621094,631.969360 571.543945,620.627808 567.544800,609.647522 
	C566.563538,612.526001 564.438477,611.953674 562.174927,611.671631 
	C563.638855,618.399353 566.635132,623.977600 569.072083,630.561401 
M358.951843,336.518768 
	C359.620270,337.883881 360.288696,339.248993 361.283752,341.281250 
	C361.481171,330.325928 354.658417,322.445160 351.907288,312.315277 
	C358.006775,315.002075 359.960663,320.392578 364.185730,324.020966 
	C353.365417,302.137085 340.944061,286.860321 330.391602,282.300842 
	C334.873688,288.167633 339.782928,293.740692 343.153198,299.838013 
	C342.415131,302.079742 340.225281,300.665802 339.740417,302.424042 
	C339.771423,303.906616 340.940582,305.012360 341.458466,306.375092 
	C345.558319,317.163025 354.477905,325.134521 358.951843,336.518768 
M323.716431,758.432861 
	C320.891937,758.410767 318.060577,758.251587 315.244324,758.393188 
	C307.718475,758.771606 300.565277,766.776917 301.433716,773.878906 
	C301.713104,776.163696 302.160522,779.125854 304.833557,779.357849 
	C307.906647,779.624512 307.303497,776.518677 307.680969,774.532288 
	C308.661163,769.373962 310.477081,767.567200 314.730530,767.747681 
	C314.176331,769.184631 313.717285,770.599060 313.096497,771.938477 
	C311.743561,774.857544 313.227692,776.889709 315.427490,778.257568 
	C317.990662,779.851318 319.309814,777.761353 320.500885,775.856873 
	C322.612457,772.480530 324.519562,768.947266 326.916138,765.785889 
	C329.835205,761.935303 328.800171,759.817627 323.716431,758.432861 
M620.336792,206.700027 
	C625.391785,203.690903 631.988220,203.391586 635.965759,198.488327 
	C606.120056,201.181091 580.140564,226.405594 577.079773,250.850037 
	C586.521912,231.565216 598.783325,215.052811 620.336792,206.700027 
M656.637024,194.301926 
	C651.268311,194.597198 645.813660,194.448471 640.808594,197.620651 
	C660.668152,196.200333 680.304749,196.175781 699.509216,202.106506 
	C695.404724,199.246628 691.166260,197.242447 686.336182,196.239456 
	C676.818054,194.262970 667.235779,194.142487 656.637024,194.301926 
M347.905487,292.564453 
	C352.821533,298.455292 357.737610,304.346130 363.322418,311.038330 
	C361.128967,300.794983 338.562134,275.707428 329.221313,275.209625 
	C334.470734,281.830841 341.829224,285.999756 347.905487,292.564453 
M328.144196,648.355408 
	C325.470215,646.483643 326.633331,648.962585 326.719818,649.722351 
	C327.561493,657.119934 328.403961,664.519287 329.406830,671.896301 
	C330.420746,679.354248 331.616455,686.787476 332.732544,694.231567 
	C333.340851,678.884094 332.502319,663.731750 328.144196,648.355408 
M221.456772,366.185547 
	C232.211227,372.504669 241.216125,380.908142 249.588013,390.070312 
	C242.790710,377.209137 229.648849,371.532623 219.435318,362.050812 
	C218.331726,364.680328 219.960419,365.038483 221.456772,366.185547 
M235.577499,333.146973 
	C237.237274,330.345459 240.522980,328.028656 238.730698,322.894531 
	C235.752853,327.009399 233.625626,330.680969 228.721970,328.926422 
	C228.844025,334.464539 230.020981,335.255615 235.577499,333.146973 
M235.297272,359.784760 
	C240.914978,360.711060 246.376404,362.292542 251.819519,363.950775 
	C245.504395,359.691071 232.754593,356.962982 221.120117,357.964630 
	C225.555298,358.547241 229.990463,359.129883 235.297272,359.784760 
M746.518860,212.977798 
	C749.199585,215.093369 750.923157,218.453339 754.895142,219.781372 
	C751.879822,213.218567 744.558716,206.535843 737.067200,203.821014 
	C740.572632,207.228394 743.284912,209.864868 746.518860,212.977798 
M595.544861,653.755249 
	C596.956604,657.876465 598.782349,661.749329 601.942566,664.835510 
	C599.123840,661.458801 599.882812,656.130859 595.544861,653.755249 
z"/>
<path fill="#000000" opacity="1.000000" stroke="none" 
	d="
M327.085968,162.171844 
	C298.703064,177.466080 271.937073,194.514435 247.668167,215.292603 
	C245.899567,216.806793 244.023590,218.198380 242.290634,219.750885 
	C234.796112,226.465103 234.181686,226.504150 225.018311,219.822556 
	C252.422821,192.485703 283.812347,170.871048 317.502960,152.703308 
	C381.373932,118.260742 450.346283,102.754684 522.396912,104.359322 
	C581.599731,105.677834 639.068115,117.983879 692.975769,143.568192 
	C692.876160,144.050415 692.776550,144.532639 692.676941,145.014862 
	C686.542847,143.962692 680.426514,142.131516 674.271729,141.991684 
	C645.936035,141.347931 619.998291,129.559662 592.541138,124.878540 
	C576.325806,122.114029 560.087769,120.155884 543.658203,119.235130 
	C530.518066,118.498734 517.402588,118.240013 504.251831,118.256882 
	C472.862823,118.297142 442.014343,122.203445 411.535614,129.748108 
	C382.126556,137.028000 354.236542,148.068512 327.085968,162.171844 
z"/>
<path fill="#000000" opacity="1.000000" stroke="none" 
	d="
M484.935852,844.099854 
	C486.872620,846.646606 484.637665,846.193970 483.607727,846.390930 
	C473.573395,848.309509 463.431793,847.079346 453.340179,847.283020 
	C450.179291,847.346863 446.808594,848.095886 443.667267,846.331299 
	C446.638458,842.738586 469.770813,841.500183 484.935852,844.099854 
z"/>
<path fill="#000000" opacity="1.000000" stroke="none" 
	d="
M222.165512,765.784302 
	C234.705826,764.659241 246.882645,764.101074 258.983582,766.210938 
	C259.239075,768.288513 257.843384,768.279602 256.772522,768.290405 
	C245.341644,768.406128 233.907532,768.533875 222.517593,767.284241 
	C222.111176,767.239685 221.744736,766.830627 221.359680,766.591370 
	C221.510620,766.348755 221.661530,766.106201 222.165512,765.784302 
z"/>
<path fill="#000000" opacity="1.000000" stroke="none" 
	d="
M778.336243,768.239197 
	C774.481934,766.967651 770.790710,767.635925 766.438538,767.015869 
	C772.301636,764.005737 793.131470,763.839722 798.552368,766.714172 
	C791.717285,769.641785 785.141846,767.837280 778.336243,768.239197 
z"/>
<path fill="#000000" opacity="1.000000" stroke="none" 
	d="
M306.627930,804.682800 
	C308.596161,804.915161 310.321289,804.135742 311.678558,805.537415 
	C308.264618,807.595215 293.069458,808.029846 286.870300,806.290588 
	C286.835968,805.814636 286.801636,805.338684 286.767273,804.862793 
	C293.239105,804.803528 299.710907,804.744324 306.627930,804.682800 
z"/>
<path fill="#000000" opacity="1.000000" stroke="none" 
	d="
M631.378906,469.609070 
	C626.448364,461.139404 619.895447,454.374054 612.854919,446.777527 
	C627.650757,450.083984 647.922424,482.588287 643.840820,496.082062 
	C639.311401,487.578674 636.751648,478.094910 631.378906,469.609070 
z"/>
<path fill="#000000" opacity="1.000000" stroke="none" 
	d="
M620.127197,474.973511 
	C626.768921,487.924316 628.791504,501.111511 624.908081,515.178467 
	C624.040283,493.822693 616.710876,474.547791 606.933044,455.902710 
	C612.843567,461.109100 615.787537,468.309601 620.127197,474.973511 
z"/>
<path fill="#000000" opacity="1.000000" stroke="none" 
	d="
M493.280426,767.435791 
	C483.126465,767.430481 473.415009,767.430481 463.703522,767.430481 
	C463.710358,766.670349 463.717194,765.910156 463.724030,765.150024 
	C481.959229,764.046204 500.201233,765.681885 518.439453,765.785706 
	C518.461853,766.322083 518.484314,766.858398 518.506714,767.394714 
	C514.402588,767.394714 510.298401,767.388611 506.194244,767.396362 
	C502.037140,767.404175 497.880005,767.425659 493.280426,767.435791 
z"/>
<path fill="#000000" opacity="1.000000" stroke="none" 
	d="
M441.944275,767.360046 
	C440.453674,767.062805 439.285583,766.157410 440.980713,765.702026 
	C445.548492,764.474854 450.246674,764.057861 455.844269,766.638428 
	C450.579285,767.932800 446.429993,767.167175 441.944275,767.360046 
z"/>
<path fill="#000000" opacity="1.000000" stroke="none" 
	d="
M656.587219,183.939835 
	C640.953796,182.356750 627.494629,189.382751 612.584412,193.621109 
	C617.892944,185.125900 656.298584,177.446777 665.424805,182.334076 
	C662.834167,184.640381 659.749146,183.432449 656.587219,183.939835 
z"/>
<path fill="#000000" opacity="1.000000" stroke="none" 
	d="
M583.300049,212.108246 
	C585.405701,206.039307 590.532654,204.127365 595.988037,201.477432 
	C594.683472,205.705673 586.790405,212.154053 583.300049,212.108246 
z"/>
<path fill="#000000" opacity="1.000000" stroke="none" 
	d="
M480.767456,883.009277 
	C474.216278,882.853577 467.592102,885.607056 461.168091,882.449341 
	C467.733368,883.436523 474.264801,878.684875 480.767456,883.009277 
z"/>
<path fill="#000000" opacity="1.000000" stroke="none" 
	d="
M513.510986,882.834351 
	C513.168213,883.779480 512.999023,884.627625 512.530640,884.852478 
	C510.398529,885.875916 508.048462,886.742310 506.315155,884.347168 
	C505.239868,882.861328 505.382568,880.787415 507.272827,880.192505 
	C509.651367,879.444153 512.633240,878.489136 513.510986,882.834351 
z"/>
<path fill="#000000" opacity="1.000000" stroke="none" 
	d="
M550.369080,881.206177 
	C552.607910,882.010925 554.734497,880.735229 556.571960,882.002625 
	C552.368652,884.614990 544.806458,885.087280 540.362793,882.839722 
	C543.524475,880.961975 546.757629,881.091858 550.369080,881.206177 
z"/>
<path fill="#000000" opacity="1.000000" stroke="none" 
	d="
M498.766632,883.352234 
	C497.499542,885.816284 495.884521,885.562378 494.410339,884.107117 
	C493.566650,883.274170 493.344574,881.826477 494.530060,881.150574 
	C496.529938,880.010071 497.842255,881.209595 498.766632,883.352234 
z"/>
<path fill="#000000" opacity="1.000000" stroke="none" 
	d="
M647.057617,768.359985 
	C645.312622,768.114319 643.622681,768.885681 642.681335,766.700623 
	C645.616333,764.998413 648.441589,765.439148 651.527832,766.501953 
	C650.819824,769.007202 648.886902,768.093933 647.057617,768.359985 
z"/>
<path fill="#000000" opacity="1.000000" stroke="none" 
	d="
M662.177612,765.773071 
	C664.074829,766.366028 664.636047,767.489502 662.855469,767.983215 
	C660.271729,768.699707 657.500488,768.752441 654.091370,767.253418 
	C657.021606,764.931763 659.525513,765.938904 662.177612,765.773071 
z"/>
</svg>